<svg xmlns="http://www.w3.org/2000/svg" viewBox="0 0 566.93 137.77"><defs><style>.cls-1{fill:#aaa9ac;}.cls-2{fill:#eab538;}.cls-3{fill:#0075c2;}.cls-4{fill:#e72d19;}.cls-5{fill:#e83818;}.cls-6{fill:#aaa9ab;}</style></defs><g id="图层_2" data-name="图层 2"><g id="图层_1-2" data-name="图层 1"><path class="cls-1" d="M55.75,132.7H10.37a9.63,9.63,0,0,1,0-19.25H55.75a17.93,17.93,0,1,0,0-35.85H10.37a9.63,9.63,0,0,1,0-19.25H55.75a37.18,37.18,0,1,1,0,74.35Z"/><path class="cls-2" d="M55.75,77.6H10.37a9.63,9.63,0,0,1,0-19.25H55.75a17.93,17.93,0,1,0,0-35.85H10.37a9.63,9.63,0,0,1,0-19.25H55.75a37.18,37.18,0,1,1,0,74.35Z"/><path class="cls-3" d="M9.62,132.6A9.63,9.63,0,0,1,0,123V12.74a9.63,9.63,0,1,1,19.25,0V123A9.63,9.63,0,0,1,9.62,132.6Z"/><path class="cls-3" d="M201.47,21.61H139a9.63,9.63,0,0,1,0-19.25h62.43a9.63,9.63,0,0,1,0,19.25Z"/><path class="cls-4" d="M192.78,76.86H142.57a9.63,9.63,0,1,1,0-19.25h50.21a9.63,9.63,0,0,1,0,19.25Z"/><line class="cls-4" x1="255.5" y1="13.62" x2="255.5" y2="123.96"/><path class="cls-4" d="M255.5,133.59a9.63,9.63,0,0,1-9.63-9.63V13.62a9.63,9.63,0,0,1,19.25,0V124A9.63,9.63,0,0,1,255.5,133.59Z"/><path class="cls-4" d="M418.52,133.74a9.62,9.62,0,0,1-9.62-9.63V13.47a9.62,9.62,0,0,1,19.24,0V124.11A9.62,9.62,0,0,1,418.52,133.74Z"/><path class="cls-1" d="M336.46,133.36a40.25,40.25,0,0,1-40.21-40.2,9.63,9.63,0,0,1,19.25,0,21,21,0,0,0,41.92,0V13.4a9.63,9.63,0,1,1,19.25,0V93.16A40.25,40.25,0,0,1,336.46,133.36Z"/><path class="cls-2" d="M367.05,76.65A9.63,9.63,0,0,1,357.42,67V13.4a9.63,9.63,0,1,1,19.25,0V67A9.62,9.62,0,0,1,367.05,76.65Z"/><circle class="cls-5" cx="557.31" cy="111.88" r="8.53"/><path class="cls-1" d="M557.3,82.79a9.62,9.62,0,0,1-9.62-9.62V49.65a30.43,30.43,0,0,0-30.4-30.4h-7.87A30.43,30.43,0,0,0,479,49.65H459.76A49.7,49.7,0,0,1,509.41,0h7.87a49.7,49.7,0,0,1,49.65,49.65V73.17A9.63,9.63,0,0,1,557.3,82.79Z"/><line class="cls-6" x1="138.33" y1="2.44" x2="138.33" y2="131.86"/><path class="cls-6" d="M138.33,131.86h0a9.54,9.54,0,0,1-9.53-9.54V12a9.54,9.54,0,0,1,9.53-9.54h0A9.54,9.54,0,0,1,147.86,12V122.32A9.54,9.54,0,0,1,138.33,131.86Z"/><path class="cls-2" d="M199.78,132.11H138.62a9.63,9.63,0,0,1,0-19.25h61.16a9.63,9.63,0,0,1,0,19.25Z"/><path class="cls-3" d="M520.56,137.77h-13A47.84,47.84,0,0,1,459.76,90V49.26a9.63,9.63,0,1,1,19.25,0V90a28.56,28.56,0,0,0,28.53,28.53h13a9.63,9.63,0,0,1,0,19.25Z"/></g></g></svg>